<?xml version="1.0" encoding="UTF-8" standalone="no"?>
<svg
   width="512"
   height="512"
   viewBox="0 0 512 512.00001"
   version="1.1"
   id="svg5"
   xml:space="preserve"
   xmlns="http://www.w3.org/2000/svg"
   xmlns:svg="http://www.w3.org/2000/svg"><path
       d="M 249.95713,511.33052 C 244.7821,510.33927 214.20749,496.28159 186.42816,482.12104 137.44641,457.15254 87.565851,426.43488 46.086341,395.69515 37.819187,389.56851 34.338787,385.35512 31.948149,378.57931 30.554485,374.62923 27.371502,342.26807 25.838618,316.46403 22.57136,261.46417 24.055884,200.72867 29.9855,146.80494 c 1.300376,-11.82563 2.253673,-15.325 5.512112,-20.23406 2.697364,-4.06374 3.821154,-5.04332 15.328137,-13.36113 C 105.44109,73.731113 163.32549,39.778377 223.22089,12.08944 255.69748,-2.9240966 255.41181,-2.8932989 276.25619,6.3714527 339.75671,34.595675 403.69006,71.454795 459.98948,112.29815 c 12.74999,9.24969 13.80951,10.16416 16.53663,14.27273 3.25844,4.90906 4.21174,8.40843 5.51211,20.23406 7.7618,70.58553 7.76079,149.66506 -0.002,219.18483 -2.00317,17.93745 -3.92837,20.98425 -21.08926,33.3758 -58.49819,42.24032 -120.31709,77.80506 -185.55654,106.75164 -13.29661,5.89969 -17.42808,6.74657 -25.43246,5.21331 z m 75.11884,-112.79371 c 2.27253,-1.75772 35.47925,-32.61758 36.76638,-34.16798 1.653,-1.99107 1.34165,-5.41545 -0.67577,-7.43286 -1.64498,-1.64499 -1.93833,-1.71646 -7.04644,-1.71646 h -5.33 V 251.95918 c 0,-72.11801 -0.19042,-103.80634 -0.63115,-105.07082 -1.28283,-3.67988 -1.06145,-3.64959 -26.67387,-3.64959 -25.61241,0 -25.39103,-0.0302 -26.67385,3.64959 -0.42624,1.22271 -0.63113,14.84089 -0.63113,41.94638 v 40.13586 h -38.16829 -38.16827 v -36.11306 -36.11307 h 5.33001 c 5.10812,0 5.40145,-0.0715 7.04644,-1.71644 1.87114,-1.87114 2.26013,-4.63375 0.96163,-6.82976 -0.66166,-1.11902 -32.35458,-30.86662 -36.7245,-34.47037 -2.42357,-1.99863 -5.1706,-2.10915 -7.50942,-0.30213 -2.31206,1.78636 -35.49969,32.62048 -36.76639,34.15909 -1.65177,2.00637 -1.34129,5.4261 0.67577,7.44317 1.64499,1.64501 1.93833,1.71644 7.04646,1.71644 h 5.33 V 260.0048 c 0,74.05923 0.18405,103.78833 0.65087,105.1274 1.23387,3.53947 1.63027,3.59302 26.59734,3.59302 15.65621,0 23.06013,-0.20551 24.07624,-0.66857 3.33094,-1.51767 3.28555,-0.89909 3.28555,-44.7817 V 282.9934 h 38.16827 38.16829 v 36.11304 36.11307 h -5.33 c -5.10814,0 -5.40147,0.0715 -7.04645,1.71646 -1.84831,1.84828 -2.22835,4.22297 -1.06002,6.62357 0.6192,1.27229 29.37885,28.41635 35.80312,33.79187 3.48193,2.9135 5.86643,3.24492 8.52918,1.1854 z"
       id="path248" /></svg>
